<?xml version="1.0" encoding="utf-8"?>
<!-- Generator: Adobe Illustrator 28.0.0, SVG Export Plug-In . SVG Version: 6.00 Build 0)  -->
<svg version="1.1" id="Camada_1" xmlns="http://www.w3.org/2000/svg" xmlns:xlink="http://www.w3.org/1999/xlink" x="0px" y="0px"
	 viewBox="0 0 750.8 505.3" style="enable-background:new 0 0 750.8 505.3;" xml:space="preserve">
<style type="text/css">
	.st0{display:none;opacity:0.2;}
	.st1{display:inline;}
	.st2{fill:#38AA3B;}
</style>
<g id="Logo">
	<path d="M376.3,210.9c-97.6,0-248.6,0.5-376.3,3.3v0.6c127.7,2.8,285.4,3.4,382.7,3.4c36,0,218.6-0.1,366.8-3.4v-0.6
		C647.4,212,514.8,210.9,376.3,210.9"/>
	<path d="M708,0H430.8c-5,0-12-0.1-19.4,7.3c-7,7-4.9,14-16.5,14h-40.4c-11.6,0-9.5-6.9-16.5-14C330.6-0.1,323.6,0,318.6,0H41.3
		c-9.5,0-13.7,8.4-9.1,15.9l5,8.3c2.7,4.6,6.2,5.3,8.8,5.8c2.4,0.5,3.8,0.8,5.7,4l4.4,7.7c3.4,6.3,7.5,7.1,10.5,7.6
		c2.4,0.5,4.5,0.6,7.5,6c3.2,5.8,7.5,13.1,17.6,16.2c0,0,103.5,30.2,103.6,30.2c10.8,3.5,13.5,7.4,16.7,12c1.7,2.4,6.8,11,20.8,14.8
		l98.5,26.6c9.2,2.5,15.7-1,20.2-5l17.9-16.9c4.6-4.3,6.5-4.3,11.1,0l17.9,16.9c4.5,4,10.9,7.5,20.2,5l98.5-26.6
		c14-3.8,19.1-12.4,20.8-14.8c3.2-4.6,5.9-8.5,16.7-12l103.6-30.2c10.1-3,14.4-10.3,17.6-16.2c2.9-5.4,5.1-5.6,7.5-6
		c3-0.6,7.1-1.3,10.5-7.6l4.4-7.7c1.8-3.2,3.3-3.5,5.7-4c2.6-0.5,6.1-1.2,8.8-5.8l5-8.3C721.7,8.4,717.5,0,708,0 M41.5,17.2l-3-5
		c-0.9-1.5-1.5-4.9,2.8-4.9h277.3c5.6,0,11.9-0.1,18,10.5c0.8,1.4,1.7,3,2.9,4.5h-281C47.1,22.4,44.9,22.4,41.5,17.2 M221.3,28
		h306.8v48.1H221.3V28z M63.5,39.8c-2.6-2.6-4.3-8-6.6-11.2l159-0.7v7L81.4,42.7C70.8,43.5,66.5,42.9,63.5,39.8 M84.3,58.1
		c-1.5-1.9-2.7-4.1-3.9-6.2c-0.6-1.1-1.2-2-1.8-2.8c1.9-0.1,2.3-0.2,5.9-0.4l131.2-8.1v7.5L112,59.2C98.1,60.7,88.6,62.8,84.3,58.1
		 M119.8,72.2c-7.6-2.2-14.2-4.1-18.9-5.5c12.6-1.5,114.8-12.9,114.8-12.9v8.3l-66.4,10.7C141.6,74.1,132.4,75.6,119.8,72.2
		 M165.9,85.7c-6.7-1.9-13.9-4-21-6.1c1.9-0.3,3.2-0.5,5.4-0.8c6.7-1.1,65.5-10.9,65.5-10.9v9c0,0-24.6,7-24.7,7
		C190.9,83.8,175.7,88.4,165.9,85.7 M197.2,94.8L197.2,94.8c-1-0.3-5.5-1.6-12.1-3.5c4.3-0.8,7-1.7,7.6-1.9
		c0.4-0.1,26.8-7.8,26.8-7.8h30l-27.7,12.9C212.9,97.9,205.1,96.9,197.2,94.8 M224.8,117.1c-3.3-2.3-5.1-4.8-7-7.5
		c-1.6-2.3-3.2-4.6-5.8-7c0.6,0,3.4-0.2,6.5-1c3.3-0.8,10.5-3.9,10.5-3.9l33.3-16.2h22.2l-43.7,30.9
		C234.2,116.9,228.9,118.5,224.8,117.1 M257.8,127.8l-21.4-5.8c2.9-1.2,5.7-2.8,8-4.3c2.2-1.5-0.3,0.4,50.3-36.2h18.6l-34.2,35
		C273,122.7,266.4,129.5,257.8,127.8 M291.5,137l-20.1-5.4c5.5-3.2,10.4-8.6,12.3-10.5l38-39.4h16.6L308,129
		C303.1,136.4,297.4,138,291.5,137 M326.7,146.5l-21.4-5.8c1-0.7,4.8-3,8.4-8.8l31.7-50.4h14.4c0,0-18.6,54.6-19.9,57.3
		C336.2,146.9,331.9,147.5,326.7,146.5 M403,144.8L385.3,128c-7.4-7-13.7-7-21.2,0l-17.7,16.8c-1.4,1.2-2.7,2.1-4.1,2.8
		c3.3-4.1,5.2-9.8,6.4-13.5l17.6-52.5h16.8l17.6,52.5c1.3,3.9,3.2,9.5,6.4,13.5C405.7,146.9,404.4,146,403,144.8 M422.6,146.5
		c-5.2,1-9.5,0.4-13.2-7.6c-1.3-2.8-19.9-57.3-19.9-57.3h14.4l31.7,50.4c3.6,5.7,7.3,8.1,8.4,8.8L422.6,146.5z M457.9,137
		c-5.9,1.1-11.6-0.6-16.6-8.1L411,81.6h16.7l38,39.4c1.9,2,6.7,7.3,12.3,10.5L457.9,137z M491.6,127.8c-8.7,1.7-15.3-5.2-21.3-11.3
		l-34.2-35h18.6c0,0,48.1,34.7,50.3,36.2c2.3,1.5,5,3.1,8,4.3L491.6,127.8z M531.5,109.7c-1.9,2.7-3.6,5.2-7,7.5
		c-4,1.3-9.4-0.3-16.1-4.6c-1.9-1.2-43.7-30.9-43.7-30.9h22.2c0,0,25.7,12.7,33.3,16.2c4.3,2,9.8,4.5,17,4.9
		C534.7,105,533.1,107.4,531.5,109.7 M552.2,94.8L552.2,94.8c-7.9,2.1-15.7,3.1-24.6-0.3c-3.2-1.2-27.7-12.9-27.7-12.9h30
		c0,0,26.4,7.7,26.8,7.8c0.7,0.2,3.3,1,7.6,1.9C557.7,93.2,553.2,94.5,552.2,94.8 M583.5,85.7c-9.8,2.7-25.2-1.9-25.2-1.9
		c-0.1,0-24.7-7-24.7-7v-9c0,0,58.9,9.8,65.5,10.9c2.2,0.4,3.4,0.6,5.4,0.8C597.3,81.6,590.2,83.7,583.5,85.7 M629.6,72.2
		c-12.5,3.3-21.8,1.8-29.5,0.6c-6.6-1.1-66.5-10.7-66.5-10.7v-8.3l114.8,12.9C643.8,68.1,637.1,70,629.6,72.2 M669,52
		c-1.1,2.1-2.4,4.2-3.9,6.2c-4.3,4.7-13.8,2.6-27.8,1.1L533.6,48.2v-7.6c0,0,129.6,8,131.2,8.1c3.6,0.2,4,0.3,5.9,0.4
		C670.1,50,669.5,50.9,669,52 M683.9,40.7c-5.1,3.2-10.8,2.3-27.9,1.3l-122.4-7.1v-7l158.9,0.7C689.3,33.2,688.4,37.9,683.9,40.7
		 M710.9,12.2l-3,5c-3.4,5.2-5.6,5.2-17,5.2h-281c1.2-1.5,2.1-3.1,2.9-4.5c6.1-10.6,12.4-10.5,18-10.5h277.3
		C712.4,7.3,711.8,10.7,710.9,12.2 M397.8,66.4c-0.7-8.7-1.2-13.8-1.6-17.3c-4.7,8.5-6.7,12.5-8.6,16.9h-1.9
		c-4.7-9.5-5.2-10.6-6.5-13.1c-0.4-0.8-1-1.8-1.9-3.6c-0.4,3.4-1.1,10.2-1.6,17.1h-4.8c1.4-10,3.6-27,3.8-28.4h2.9
		c0,0,6.9,13.7,9.9,18.9c3.5-6.4,5.7-10.9,10.2-18.9h2.6c0.5,4.1,2,17.1,3.4,28.4H397.8z M485.4,38h-5.6v28.4h5.6V38z M468.5,66.4
		V42.2c4.2,0.1,6.4,0.3,8.5,0.6V38h-22.9v4.8c2.4-0.3,4.8-0.5,8.8-0.6v24.2H468.5z M291.1,66.4V42.2c4.2,0.1,6.4,0.3,8.5,0.6V38
		h-22.9v4.8c2.4-0.3,4.8-0.5,8.8-0.6v24.2H291.1z M356.8,66.4V38h-4.4v18.3L335.5,38h-3.2v28.4h4.5V47.2L354,66.4H356.8z
		 M257.9,58.4v6.3c1.8,1.1,4,2.4,7.7,2.4c6.1,0,11.6-3.4,11.6-9.3c0-1.9-0.6-5.3-4.9-7.2c-3.6-1.6-5.9-2-7.5-3.3
		c-2.8-2.4-0.5-6.2,3.3-6.2c1.2,0,4,0.3,4.8,3.1h2.1V39c-2-0.9-4.5-1.8-7.1-1.8c-2.3,0-4.5,0.7-6.3,2c-4.3,3.2-5.5,9.6,0.6,13.3
		c3.9,2.3,9.1,2.1,9.3,6.3c0.1,3.1-2.9,4.3-5.1,4.3c-4.5,0-5.9-3.9-6.2-4.7L257.9,58.4z M257.8,66.4l-12.5-29h-2.4l-12.9,29h5.3
		c0.7-2.3,1.2-4.1,2.8-8h10.2c1.3,3.1,2.2,5.9,3,8H257.8z M239.7,54.7c0.6-1.4,0.7-1.7,3.5-8.3c2.7,6.3,2.9,6.7,3.5,8.3H239.7z
		 M328.6,52.2c0-10-7.5-15.2-14.8-15.2S299,42.1,299,52.2c0,10,7.5,15.2,14.8,15.2C321.2,67.4,328.6,62.3,328.6,52.2 M313.9,63.6
		L313.9,63.6c-4.5,0-8.5-4.2-8.5-11.4c0-7.5,4.3-11.4,8.5-11.4l0,0c4.2,0,8.5,3.9,8.5,11.4S318.1,63.6,313.9,63.6L313.9,63.6z
		 M433.9,66.4h5.6V54.7h1.4l9.5,11.7h7l-10.6-12.5c1.5-0.6,2.8-1.4,3.8-2.4c2.9-2.9,3.3-7.9,0-11.2c-1.7-1.7-3.6-2.6-8.4-2.6
		c0,0-6.5,0.1-8.2,0.2L433.9,66.4z M439.5,41.4c0.7-0.1,1.3-0.1,1.9-0.1c5.8,0,6,4.3,6,4.9c0,3-2.6,5.7-7.9,4.8V41.4z M432.4,66.4
		l-12.5-29h-2.4l-12.9,29h5.3c0.7-2.3,1.2-4.1,2.8-8h10.1c1.3,3.1,2.2,5.9,3,8H432.4z M414.4,54.7c0.6-1.4,0.7-1.7,3.5-8.3
		c2.7,6.3,2.9,6.7,3.5,8.3H414.4z M515.7,66.4V38h-4.4v18.3l-17-18.3h-3.2v28.4h4.5V47.2l17.2,19.2H515.7z"/>
	<g>
		<path d="M322.9,454.4h-3.6l-21.5,48.3h8.2c0.8-2.9,1.8-6.2,4.7-13.5h17.6c2.1,5.2,3.8,10,5.1,13.5h10.3L322.9,454.4z M319.5,468.4
			c5.2,12,5.3,12,6.5,15.2h-13C314.4,480.5,314.5,480.4,319.5,468.4"/>
		<path d="M650.8,454.4h-3.5l-21.5,48.3h8.2c0.8-2.9,1.8-6.2,4.7-13.5h17.6c2.1,5.2,3.8,10,5.1,13.5h10.3L650.8,454.4z M647.5,468.4
			c5.2,12,5.3,12,6.5,15.2h-13C642.4,480.5,642.4,480.4,647.5,468.4"/>
		<path d="M199.4,502.7c-1.2-15-2.1-24-2.8-30c-8.1,14.6-11.6,21.7-14.9,29.3H179c-8.2-16.8-9.1-18.4-11-21.9
			c-0.8-1.5-1.7-3.2-3.7-7.1c-0.4,3-1.8,16.2-2.8,29.7h-7.4c2.4-17,6.1-45.7,6.3-47.3h4.4c0.7,1.3,1.3,2.6,1.9,3.9
			c5.4,10.8,9.7,19.4,14.9,28.3l0.1,0.1l0.1-0.1c2.3-4.3,4.5-8.3,6.5-12.2c3.2-6,6.5-12.2,10.9-20h3.9c0.2,1.5,2.9,24.9,5.6,47.3
			H199.4z"/>
		<path d="M720.3,502.7c-1.2-15-2.1-24-2.8-30c-8.1,14.6-11.6,21.7-14.9,29.3h-2.7c-8.2-16.8-9.1-18.4-11-21.9
			c-0.8-1.5-1.7-3.2-3.7-7.1c-0.3,3-1.8,16.2-2.8,29.7H675c2.4-17,6.1-45.7,6.3-47.3h4.4c0.7,1.3,1.3,2.6,1.9,3.9
			c5.4,10.8,9.7,19.4,14.9,28.3l0.1,0.1l0.1-0.1c2.3-4.3,4.5-8.3,6.5-12.2c3.2-6,6.5-12.2,10.9-20h3.9c0.2,1.5,2.9,24.9,5.6,47.3
			H720.3z"/>
		<path d="M78.7,504.4c-9.9,0-15.7-5.2-17.1-6.6c-4-3.8-7.5-9.9-7.5-18.7s3.5-14.9,7.5-18.7c1.4-1.3,7.2-6.6,17.1-6.6
			c6,0,17.5,2.5,22.5,14.5c1.4,3.2,2,6.9,2,10.8c0,8.8-3.5,14.9-7.5,18.7C94.3,499.1,88.5,504.4,78.7,504.4 M78.7,498.7
			c7.3,0,14.8-6.8,14.8-19.7s-7.4-19.7-14.8-19.7l0,0c-7.3,0-14.8,6.8-14.8,19.7S71.3,498.7,78.7,498.7L78.7,498.7L78.7,498.7z"/>
		<path d="M391.4,504.4c-9.9,0-15.7-5.2-17.1-6.6c-4-3.8-7.5-9.9-7.5-18.7s3.5-14.9,7.5-18.7c1.4-1.3,7.2-6.6,17.1-6.6
			c6,0,17.5,2.5,22.5,14.5c1.4,3.2,2,6.9,2,10.8c0,8.8-3.5,14.9-7.5,18.7C407.1,499.1,401.3,504.4,391.4,504.4 M391.4,498.7
			c7.3,0,14.8-6.8,14.8-19.7s-7.4-19.7-14.8-19.7l0,0c-7.3,0-14.8,6.8-14.8,19.7S384.1,498.7,391.4,498.7L391.4,498.7L391.4,498.7z"
			/>
		<path d="M111.7,455.3c2.6-0.2,13.3-0.3,13.5-0.3c8.1,0,11.3,1.6,14,4.3c2.6,2.6,3.9,5.9,3.8,9.4c-0.1,3.3-1.5,6.6-3.8,8.9
			c-2.5,2.5-5.6,3.7-6.7,4.1l17.8,20.9h-10.8l-16-19.8h-2.9v19.8h-8.8L111.7,455.3z M124,460.3c-1.1,0-2.3,0.1-3.5,0.3h-0.1v16.7
			h0.1c1.3,0.2,2.5,0.3,3.6,0.3c7.1,0,10.3-4.5,10.3-8.8l0,0c0-0.6-0.1-3.5-2.4-5.8C130.2,461.2,127.5,460.3,124,460.3"/>
		<polygon points="267.6,502.7 267.6,455.4 276.4,455.4 276.4,496.5 296,496.5 296,502.7 		"/>
		<polygon points="512.3,457.3 508.7,457.3 508.7,455.4 518.3,455.4 518.3,457.3 514.6,457.3 514.6,467.7 512.3,467.7 		"/>
		<path d="M530.8,462.7c-0.1-1.6-0.2-3.5-0.2-5.2h-0.1c-0.4,1.5-0.9,3.2-1.5,4.7l-1.7,5.4h-1.9l-1.7-5.3c-0.5-1.6-0.9-3.3-1.3-4.8
			l0,0c-0.1,1.6-0.1,3.6-0.2,5.3l-0.3,5h-2.2l0.8-12.3h3.1l1.7,5c0.5,1.4,0.8,2.9,1.2,4.3h0.1c0.3-1.3,0.8-2.9,1.3-4.3l1.8-4.9h3.1
			l0.7,12.3h-2.3L530.8,462.7z"/>
		<path d="M460.9,502.7c-2-2.5-16.1-18.1-29.6-33v33h-6.8v-47.3h4.8l29.1,31.6v-31.6h6.8v47.3H460.9z"/>
		<path d="M564.4,502.7v-40.9c-7.4,0.1-12,0.6-14.9,0.9v-7.4h38v7.4c-2.2-0.3-6.5-0.9-14.3-1v40.9L564.4,502.7L564.4,502.7z"/>
		<path d="M484.6,496.4v-15.3h16.9v-5.8h-16.9v-14c4,0,9.6,0,19.3,0.6v-6.7h-28.1v47.3h28.9v-7C498.3,496.1,491,496.4,484.6,496.4"
			/>
		<path d="M602.5,496.4v-15.3h16.9v-5.8h-16.9v-14c4,0,9.6,0,19.3,0.6v-6.7h-28.1v47.3h28.9v-7C616.2,496.1,608.8,496.4,602.5,496.4
			"/>
		<path d="M249.4,455.4c0.3,18.2,0.2,25.4,0.2,25.4c0,5.9-0.4,16.6-11.8,16.6c-4.1,0-12.2-0.7-12.2-14.2c0-12.2,0.3-27.3,0.3-27.8
			h-9.2c0,0.6,0,14.4,0,27.8c0,19.4,15.6,20.2,19.5,20.2c11.2,0,20-5.1,20.2-20.6l0.1-27.4H249.4z"/>
		<path d="M48.6,462.1L48.6,462.1v-6.7H19.8v47.4h8.8v-20.3h17.8v-6.2H28.6v-14.7C37.4,461.5,42.6,461.7,48.6,462.1"/>
	</g>
	<g>
		<g>
			<path d="M672.6,273.5c-31.4,0-57,25.6-57,57s25.6,57.1,57,57.1s56.7-25.6,56.7-57.1C729.3,299.1,704,273.5,672.6,273.5
				 M672.6,361.6c-17.3,0-31.1-14.1-31.1-31.1s13.8-30.8,31.1-30.8c17,0,30.8,13.8,30.8,30.8C703.4,347.5,689.6,361.6,672.6,361.6"
				/>
			<path d="M463.8,272.2c-12.5,0-25.3,2.6-35.6,6.7c-8.3-4.8-16.3-6.7-27.9-6.7c-14.4,0-29.1,1.9-45.2,7.4l-2.9,1v104.8h28.5v-85.9
				c5.8-1.9,10.3-2.6,16-2.6c14.1,0,18.3,4.5,18.3,19.2v69.2h28.8v-71.1c0-6.4-0.3-10.6-1.3-14.4c5.8-1.9,10.3-2.9,15.4-2.9
				c13.5,0,19.6,6.1,19.6,19.2v69.2H506v-71.5c0-14.1-2.3-22.4-8.7-29.5C490.3,276.7,478.5,272.2,463.8,272.2"/>
			<path d="M578.1,362.8c-19,0-29.9-11.8-29.9-32.4c0-21.1,11-33.2,30.2-33.2c4,0,7.3,0.4,10.5,1.4c0,0,5.9,1.7,11.1,5.7l12.1-20.7
				c-6.6-5.5-14.3-7.9-16.9-8.5c-7.4-2.2-18.3-2.6-18.3-2.6c-34.3,0-57.3,23.8-57.3,59.1c0,34,21.8,55.9,55.7,55.9
				c0,0,22.7,1,37.9-13.1L599,356.2C591.2,361.1,585.8,362.8,578.1,362.8"/>
			<path d="M206.3,273.2c-40.7,0-59.6,17.9-59.6,56.1v56.1h29.2v-53.8V329c0-19.2,10.9-31.1,27.9-31.1c7.1,0,12.5,1.3,16.3,2.2
				l6.7-25.3C215.5,273.2,206.3,273.2,206.3,273.2"/>
			<path d="M335.6,326.1v59.3h-39.1c-26.9,0-38.8-1.9-52.9-11.2c-12.2-8.3-18.9-24-18.9-44.5c0-28.2,18.6-56.7,59.6-56.7
				C317.6,272.9,335.6,291.5,335.6,326.1 M307.1,329.3c0-21.5-8.3-32-25-32c-17,0-27.9,12.5-27.9,31.4c0,22.8,10.9,32.7,35.2,32.7
				H307v-32.1H307.1z"/>
			<path d="M130.8,326.1v59.3H92c-26.9,0-38.8-1.9-52.9-11.2c-12.2-8.3-18.9-24-18.9-44.5c0-28.2,18.6-56.7,59.6-56.7
				C113.2,272.9,130.8,291.5,130.8,326.1 M101.3,329.3c0-21.8-7.7-32-24.7-32s-27.9,12.5-27.9,31.4c0,22.8,10.9,32.7,35.2,32.7h17.3
				L101.3,329.3L101.3,329.3z"/>
		</g>
	</g>
</g>
<g id="Guides" class="st0">
	<g class="st1">
		<path class="st2" d="M-127.9,190.3c12,0,22.3,7,27,17.2H-86c-5.4-18-22.2-31.2-42-31.2c-24.1,0-43.7,19.6-43.7,43.8
			s19.6,43.8,43.8,43.8c19.8,0,36.5-13.2,42-31.2h-15c-4.8,10.2-15.1,17.2-27,17.2c-16.5,0-29.8-13.3-29.8-29.8
			S-144.4,190.3-127.9,190.3"/>
		<path class="st2" d="M-42.1,190.3c12,0,22.3,7,27,17.2h14.9c-5.4-18-22.2-31.2-42-31.2c-24.2,0-43.8,19.6-43.8,43.8
			c0,24.2,19.6,43.8,43.8,43.8c19.8,0,36.5-13.2,42-31.2h-14.9c-4.8,10.2-15.1,17.2-27,17.2c-16.5,0-29.8-13.4-29.8-29.8
			C-71.9,203.6-58.6,190.3-42.1,190.3"/>
	</g>
	<g class="st1">
		<path class="st2" d="M793.3,220.4c12,0,22.3,7,27,17.2h14.9c-5.4-18-22.2-31.2-42-31.2c-24.2,0-43.8,19.6-43.8,43.8
			S769,294,793.2,294c19.8,0,36.5-13.2,42-31.2h-14.9c-4.8,10.2-15.1,17.2-27,17.2c-16.5,0-29.8-13.4-29.8-29.8
			C763.4,233.8,776.8,220.4,793.3,220.4"/>
		<path class="st2" d="M879,220.4c12,0,22.3,7,27,17.2h14.9c-5.4-18-22.2-31.2-42-31.2c-24.2,0-43.8,19.6-43.8,43.8
			s19.6,43.8,43.8,43.8c19.8,0,36.5-13.2,42-31.2H906c-4.8,10.2-15.1,17.2-27,17.2c-16.5,0-29.8-13.4-29.8-29.8
			C849.2,233.8,862.6,220.4,879,220.4"/>
		<path class="st2" d="M964.8,220.4c-12,0-22.3,7-27,17.2h-14.9c5.4-18,22.2-31.2,42-31.2c24.2,0,43.8,19.6,43.8,43.8
			S989.1,294,964.9,294c-19.8,0-36.5-13.2-42-31.2h14.9c4.8,10.2,15.1,17.2,27,17.2c16.5,0,29.8-13.4,29.8-29.8
			S981.3,220.4,964.8,220.4"/>
		<path class="st2" d="M879,220.4c-12,0-22.3,7-27,17.2h-14.9c5.4-18,22.2-31.2,42-31.2c24.2,0,43.8,19.6,43.8,43.8
			S903.3,294,879.1,294c-19.8,0-36.5-13.2-42-31.2H852c4.8,10.2,15.1,17.2,27,17.2c16.5,0,29.8-13.4,29.8-29.8
			C908.9,233.8,895.5,220.4,879,220.4"/>
	</g>
	<g class="st1">
		<path class="st2" d="M1761.6,220.5c12,0,22.3,7,27,17.2h14.9c-5.4-18-22.2-31.2-42-31.2c-24.2,0-43.8,19.6-43.8,43.8
			s19.6,43.8,43.8,43.8c19.8,0,36.5-13.2,42-31.2h-14.9c-4.8,10.2-15.1,17.2-27,17.2c-16.5,0-29.8-13.4-29.8-29.8
			C1731.7,233.9,1745.1,220.5,1761.6,220.5"/>
		<path class="st2" d="M1847.3,220.5c12,0,22.3,7,27,17.2h14.9c-5.4-18-22.2-31.2-42-31.2c-24.2,0-43.8,19.6-43.8,43.8
			s19.6,43.8,43.8,43.8c19.8,0,36.5-13.2,42-31.2h-14.9c-4.8,10.2-15.1,17.2-27,17.2c-16.5,0-29.8-13.4-29.8-29.8
			S1830.9,220.5,1847.3,220.5"/>
	</g>
	<g class="st1">
		<path class="st2" d="M847.8-75.7c0-12,7-22.3,17.2-27v-14.9c-18,5.4-31.2,22.2-31.2,42c0,24.2,19.6,43.8,43.8,43.8
			s43.8-19.6,43.8-43.8c0-19.8-13.2-36.5-31.2-42v14.9c10.2,4.8,17.2,15.1,17.2,27c0,16.5-13.4,29.8-29.8,29.8
			C861.1-45.8,847.8-59.2,847.8-75.7"/>
		<path class="st2" d="M847.8-161.4c0-12,7-22.3,17.2-27v-15c-18,5.4-31.2,22.2-31.2,42c0,24.2,19.6,43.8,43.8,43.8
			s43.8-19.6,43.8-43.8c0-19.8-13.2-36.5-31.2-42v14.9c10.2,4.8,17.2,15.1,17.2,27c0,16.5-13.4,29.8-29.8,29.8
			C861.1-131.6,847.8-145,847.8-161.4"/>
	</g>
	<g class="st1">
		<path class="st2" d="M907.4,576.1c0,12-7,22.3-17.2,27V618c18-5.4,31.2-22.2,31.2-42c0-24.2-19.6-43.8-43.8-43.8
			c-24.2,0-43.8,19.6-43.8,43.8c0,19.8,13.2,36.5,31.2,42v-14.9c-10.2-4.8-17.2-15.1-17.2-27c0-16.5,13.4-29.8,29.8-29.8
			C894.1,546.3,907.4,559.6,907.4,576.1"/>
		<path class="st2" d="M907.4,661.9c0,12-7,22.3-17.2,27v14.9c18-5.4,31.2-22.2,31.2-42c0-24.2-19.6-43.8-43.8-43.8
			c-24.2,0-43.8,19.6-43.8,43.8c0,19.8,13.2,36.5,31.2,42v-14.9c-10.2-4.8-17.2-15.1-17.2-27c0-16.5,13.4-29.8,29.8-29.8
			C894.1,632.1,907.4,645.4,907.4,661.9"/>
	</g>
</g>
</svg>
