<?xml version="1.0" encoding="UTF-8" standalone="no"?>
<!-- Generator: Adobe Illustrator 29.5.0, SVG Export Plug-In . SVG Version: 9.03 Build 0)  -->

<svg
   version="1.0"
   id="svg2"
   sodipodi:docname="cadillac-formula-1-team-seeklogo.svg"
   x="0px"
   y="0px"
   viewBox="0 0 180.00002 91.275693"
   xml:space="preserve"
   width="180.00002"
   height="91.275688"
   inkscape:version="1.2.1 (9c6d41e410, 2022-07-14)"
   xmlns:inkscape="http://www.inkscape.org/namespaces/inkscape"
   xmlns:sodipodi="http://sodipodi.sourceforge.net/DTD/sodipodi-0.dtd"
   xmlns="http://www.w3.org/2000/svg"
   xmlns:svg="http://www.w3.org/2000/svg"><defs
   id="defs62" /><sodipodi:namedview
   id="namedview60"
   pagecolor="#505050"
   bordercolor="#eeeeee"
   borderopacity="1"
   inkscape:showpageshadow="0"
   inkscape:pageopacity="0"
   inkscape:pagecheckerboard="0"
   inkscape:deskcolor="#505050"
   showgrid="false"
   inkscape:zoom="2.8284271"
   inkscape:cx="30.759145"
   inkscape:cy="46.315494"
   inkscape:window-width="1920"
   inkscape:window-height="1009"
   inkscape:window-x="-8"
   inkscape:window-y="-8"
   inkscape:window-maximized="1"
   inkscape:current-layer="svg2" />
<style
   type="text/css"
   id="style2">
	.st0{fill:#FFFFFF;}
</style>

<g
   id="g31"
   transform="matrix(0.06767172,0,0,0.06767172,-34.742661,-42.694013)"
   style="fill:#000000;fill-opacity:1">
	<path
   id="path86"
   d="m 587.5,1696.6 c -24,-9.7 -42.4,-23.1 -55.1,-40.2 -12.7,-17.1 -19,-36.7 -19,-58.7 0,-22 6.3,-41.6 19,-58.7 12.7,-17.1 31,-30.5 55.1,-40.2 24,-9.7 52.4,-14.5 85.1,-14.5 55.8,0 102.8,13.5 141,40.5 v 7.5 l -15.1,18.4 c -36.1,-26.4 -78,-39.6 -125.9,-39.6 -26,0 -48.6,3.4 -67.7,10.3 -19.1,6.9 -33.8,16.8 -44.1,29.9 -10.3,13.1 -15.4,28.6 -15.4,46.4 0,17.9 5.1,33.3 15.4,46.4 10.3,13.1 25,23.1 44.1,29.9 19.1,6.9 41.6,10.3 67.7,10.3 23.9,0 45.9,-3.3 65.9,-10 20,-6.6 39.9,-16.7 59.6,-30.2 l 15.4,18.4 v 7.5 c -18.9,13.3 -39.7,23.5 -62.5,30.5 -22.8,7.1 -48.9,10.6 -78.5,10.6 -32.6,0 -61,-4.9 -85,-14.5"
   style="fill:#000000;fill-opacity:1" />
	<path
   id="path94"
   d="m 1415.4,1679.9 c 45.5,0 79.1,-6.5 100.8,-19.6 21.7,-13.1 32.6,-34 32.6,-62.6 0,-28.7 -10.9,-49.5 -32.6,-62.6 -21.7,-13.1 -55.3,-19.6 -100.8,-19.6 h -85 V 1680 h 85 z m -116.4,26.8 v -218.1 h 122.7 c 52.7,0 92.4,9.1 119.1,27.4 26.7,18.3 40.1,45.5 40.1,81.6 0,36.1 -13.4,63.3 -40.1,81.6 -26.7,18.3 -66.4,27.4 -119.1,27.4 H 1299 Z"
   style="fill:#000000;fill-opacity:1" />
	<path
   id="path96"
   d="m 1705.8,1706.7 h -31.5 v -218.1 h 31.5 z"
   style="fill:#000000;fill-opacity:1" />
	<path
   id="path100"
   d="m 1854.2,1488.6 v 191.3 h 228.4 l -20.7,26.8 h -239.1 v -218.1 z"
   style="fill:#000000;fill-opacity:1" />
	<path
   id="path104"
   d="m 2193.9,1488.6 v 191.3 h 228.4 l -20.7,26.8 h -239.1 v -218.1 z"
   style="fill:#000000;fill-opacity:1" />
	<path
   id="path108"
   d="m 2638.2,1514.8 -70.8,109.6 h 157.1 l -70.8,-109.6 z m -16.4,-26.2 h 48.3 l 140.3,210.6 v 7.5 h -32.7 l -35.9,-55.4 H 2550 l -35.9,55.4 h -32.7 v -7.5 z"
   style="fill:#000000;fill-opacity:1" />
	<path
   id="path108_00000169529882803452803790000015078618699899687065_"
   d="m 1042.7,1514.8 -70.8,109.6 H 1129 l -70.8,-109.6 z m -16.3,-26.2 h 48.3 l 140.3,210.6 v 7.5 h -32.7 l -35.9,-55.4 H 954.6 l -35.9,55.4 H 886 v -7.5 z"
   style="fill:#000000;fill-opacity:1" />
	<path
   id="path112"
   d="m 2947.2,1696.6 c -24,-9.7 -42.4,-23.1 -55.1,-40.2 -12.7,-17.1 -19,-36.7 -19,-58.7 0,-22 6.3,-41.6 19,-58.7 12.7,-17.1 31,-30.5 55.1,-40.2 24,-9.7 52.4,-14.5 85.1,-14.5 55.8,0 102.8,13.5 141,40.5 v 7.5 l -15.1,18.4 c -36.1,-26.4 -78,-39.6 -125.9,-39.6 -26,0 -48.6,3.4 -67.7,10.3 -19.1,6.9 -33.8,16.8 -44.1,29.9 -10.3,13.1 -15.4,28.6 -15.4,46.4 0,17.9 5.1,33.3 15.4,46.4 10.3,13.1 25,23.1 44.1,29.9 19.1,6.9 41.6,10.3 67.7,10.3 23.9,0 45.9,-3.3 65.9,-10 20,-6.6 39.9,-16.7 59.6,-30.2 l 15.4,18.4 v 7.5 c -18.9,13.3 -39.7,23.5 -62.5,30.5 -22.8,7.1 -48.9,10.6 -78.5,10.6 -32.6,0 -61,-4.9 -85,-14.5"
   style="fill:#000000;fill-opacity:1" />
</g>
<g
   id="g57"
   transform="matrix(0.06767172,0,0,0.06767172,-34.742661,-42.694013)"
   style="fill:#000000;fill-opacity:1">
	<path
   d="M 674.5,1871 H 548.6 v 36.7 h 104.8 v 14.9 H 548.6 v 54.7 H 531.3 V 1856.2 H 669 Z"
   id="path33"
   style="fill:#000000;fill-opacity:1" />
	<path
   d="m 753.9,1971.7 c -13.1,-5.3 -23.1,-12.7 -29.8,-22.2 -6.7,-9.5 -10,-20.4 -10,-32.8 0,-12.3 3.3,-23.3 10,-32.8 6.7,-9.5 16.6,-16.9 29.8,-22.2 13.1,-5.3 29.1,-8 47.7,-8 18.6,0 34.6,2.7 47.7,8 13.1,5.3 23.1,12.7 29.8,22.2 6.7,9.5 10,20.4 10,32.8 0,12.3 -3.3,23.3 -10,32.8 -6.7,9.5 -16.6,16.9 -29.8,22.2 -13.1,5.3 -29.1,8 -47.7,8 -18.6,0 -34.6,-2.7 -47.7,-8 z m 99.6,-19.6 c 12.1,-8.4 18.1,-20.2 18.1,-35.5 0,-15.2 -6,-27 -18.1,-35.5 -12.1,-8.4 -29.3,-12.6 -51.8,-12.6 -22.5,0 -39.8,4.2 -51.8,12.6 -12.1,8.4 -18.1,20.2 -18.1,35.5 0,15.2 6,27 18.1,35.5 12.1,8.4 29.3,12.6 51.8,12.6 22.4,0.1 39.7,-4.1 51.8,-12.6 z"
   id="path35"
   style="fill:#000000;fill-opacity:1" />
	<path
   d="m 943.7,1977.2 v -121.1 h 103.5 c 16.8,0 29.3,2.8 37.4,8.3 8.1,5.5 12.1,13.8 12.1,24.7 0,11 -4,19.2 -12.1,24.7 -8.1,5.5 -20.5,8.3 -37.4,8.3 h -7.6 v 4.2 l 12.8,2.1 41.7,44.6 v 4.2 h -17.8 l -49.8,-55 H 961 v 55 z m 106,-69.9 c 10.1,0 17.6,-1.4 22.4,-4.2 4.8,-2.8 7.2,-7.5 7.2,-13.9 0,-6.5 -2.4,-11.1 -7.2,-13.9 -4.8,-2.8 -12.3,-4.2 -22.4,-4.2 H 961 v 36.3 h 88.7 z"
   id="path37"
   style="fill:#000000;fill-opacity:1" />
	<path
   d="m 1170.5,1977.2 h -17.3 v -121.1 h 23.9 l 68.9,104.3 h 4.2 l 68.9,-104.3 h 23.9 v 121.1 h -17.3 V 1881 h -4.2 l -63.7,96.2 h -19.4 l -63.7,-96.2 h -4.2 z"
   id="path39"
   style="fill:#000000;fill-opacity:1" />
	<path
   d="m 1422.2,1963.3 c -13.1,-10.9 -19.7,-27.3 -19.7,-49.2 v -58 h 17.3 v 60.2 c 0,16.1 5.3,28.3 16,36.3 10.7,8.1 25.3,12.1 43.9,12.1 18.6,0 33.2,-4 43.9,-12.1 10.7,-8.1 16,-20.2 16,-36.3 v -60.2 h 17.3 v 58 c 0,21.9 -6.6,38.3 -19.7,49.2 -13.1,10.9 -32.3,16.3 -57.4,16.3 -25.3,0 -44.5,-5.4 -57.6,-16.3 z"
   id="path41"
   style="fill:#000000;fill-opacity:1" />
	<path
   d="m 1633.8,1856.1 v 106.2 h 120.1 l -5.9,14.9 h -131.5 v -121.1 z"
   id="path43"
   style="fill:#000000;fill-opacity:1" />
	<path
   d="m 1874.4,1856.1 h 22.1 l 77.2,116.9 v 4.2 h -18 l -19.7,-30.8 h -101 l -19.7,30.8 h -18 v -4.2 z m 9,14.6 -38.9,60.9 h 82 l -38.9,-60.9 z"
   id="path45"
   style="fill:#000000;fill-opacity:1" />
	<path
   d="m 2177,1977.2 h -16.6 v -103.1 h -3.5 l -49.7,28 -6.6,-9.5 v -3.5 l 59.7,-33 h 16.6 v 121.1 z"
   id="path47"
   style="fill:#000000;fill-opacity:1" />
	<path
   d="m 2495.5,1856.1 5.5,14.9 h -72 v 106.2 h -17.3 V 1871 h -72 l 5.5,-14.9 z"
   id="path49"
   style="fill:#000000;fill-opacity:1" />
	<path
   d="m 2570.4,1922.6 v 39.8 h 130.4 l -5.5,14.9 h -142.2 v -121.1 h 140.5 l 5.5,14.9 h -128.7 v 36.7 h 104.5 v 14.9 h -104.5 z"
   id="path51"
   style="fill:#000000;fill-opacity:1" />
	<path
   d="m 2822.1,1856.1 h 22.1 l 77.2,116.9 v 4.2 h -18 l -19.7,-30.8 h -101 l -19.7,30.8 h -18 v -4.2 z m 9,14.6 -38.9,60.9 h 82 l -38.9,-60.9 z"
   id="path53"
   style="fill:#000000;fill-opacity:1" />
	<path
   d="m 2987,1977.2 h -17.3 v -121.1 h 23.9 l 68.9,104.3 h 4.2 l 68.9,-104.3 h 23.9 v 121.1 H 3142 V 1881 h -4.2 l -63.7,96.2 h -19.4 L 2991,1881 h -4.2 v 96.2 z"
   id="path55"
   style="fill:#000000;fill-opacity:1" />
</g>
<g
   style="fill:#000000;fill-opacity:1"
   id="g446"
   transform="matrix(0.61504042,0,0,0.59221011,33.098627,0)"><path
     fill-rule="evenodd"
     clip-rule="evenodd"
     d="M 172.54524,18.260602 185,0 H 0 l 12.454668,18.260602 c 1.365763,7.754995 4.935204,27.743125 5.340345,29.674637 l 0.05156,0.246273 C 18.98619,53.6262 19.685117,56.965471 30.096172,59.537428 44.16516,63.002209 76.330116,69.740226 92.489144,72.366684 108.65451,69.73706 140.83461,63.002209 154.9036,59.537428 165.31491,56.965471 166.0137,53.6262 167.15325,48.181512 l 0.0516,-0.246273 c 0.40525,-1.944176 3.97474,-21.919642 5.34043,-29.674637 z M 21.481168,16.252653 h 16.220517 l -3.069252,-5.542881 h 55.027175 v 5.520583 h 1.841506 V 8.7941577 H 16.456953 Z m 1.555861,7.302024 H 91.479404 V 18.01503 H 22.150062 Z m 17.383835,9.281932 H 24.541126 L 23.31338,25.279266 h 68.184568 v 7.557343 H 89.656442 V 27.051571 H 39.843965 Z m 51.06849,9.303868 H 65.846446 l 0.0093,-3.968408 H 91.489354 Z M 93.517883,8.7941577 h 25.869957 l 0.0122,11.1335693 H 93.517883 Z M 28.232279,51.724992 c 0.420405,0.662834 1.19993,1.434217 3.787265,2.164216 1.116256,0.284039 2.344454,0.568079 3.963207,0.942576 l 0.609915,0.141115 H 64.05243 V 51.04271 H 27.876325 c 0.09589,0.238358 0.21303,0.466539 0.349848,0.682282 z M 64.052883,45.719914 H 26.664409 L 24.825843,34.618186 h 39.22704 z m 1.793563,15.573537 c 9.575921,1.957066 18.936778,3.764424 25.658286,4.857613 V 47.520714 H 65.846446 Z M 160.47041,32.836383 H 121.1606 V 21.699648 h 41.10518 z M 121.1606,12.335421 v 3.952375 l 42.28069,-0.01594 2.65178,-3.936431 z M 175.17916,3.4328946 H 9.834067 l 9.821312,14.5632074 c 0.846487,5.221844 1.581687,9.80062 2.207546,13.698244 l 4.52e-4,0.0029 1.36e-4,9.05e-4 c 1.18912,7.406277 1.983345,12.35254 2.395609,14.576459 0.05043,0.272958 0.09905,0.538679 0.146316,0.797616 l 4.52e-4,0.0018 4.53e-4,0.0025 2.26e-4,0.0011 c 0.975593,5.3384 1.411829,7.7265 7.01301,9.294596 11.681113,2.86866 45.534022,10.097866 61.091502,12.536171 15.557709,-2.438305 49.413559,-9.657786 61.100999,-12.536171 5.60096,-1.568096 6.03742,-3.956196 7.01301,-9.294596 l 0.0972,-0.530991 0.05,-0.272053 c 0.41068,-2.270053 1.23295,-7.377105 2.46703,-15.041642 0.61127,-3.796084 1.3234,-8.219724 2.13685,-13.236906 z M 95.359389,42.140477 h -1.841506 v -7.522291 h 66.674367 l -1.22752,7.538121 h -15.44712 c 0.23632,-1.319561 0.69359,-5.077427 0.75804,-5.622439 H 95.359389 Z m -1.841506,7.261092 h 64.145377 l 1.03733,-5.517281 H 93.517883 Z m 0,-24.119137 h 25.882167 v 3.974514 H 93.517883 Z m 0,25.760278 h 63.629767 c -0.0896,0.240167 -0.20489,0.469026 -0.34375,0.682282 -0.4204,0.662834 -1.19088,1.478768 -3.79337,2.151326 -11.52168,2.97721 -43.18617,9.498579 -59.492647,12.268414 z m 6.290474,12.048827 c -1.758963,0.323388 -3.383143,0.621901 -4.448516,0.822266 V 52.952286 H 140.6883 c -2.07806,2.539618 -6.26153,3.369121 -29.4745,7.972547 -1.02693,0.203531 -2.09095,0.414525 -3.19386,0.633434 -1.62802,0.322711 -5.12695,0.966096 -8.211583,1.53327 z"
     fill="#000000"
     id="path2"
     style="fill:#000000;fill-opacity:1;stroke-width:2.26146" /></g><path
   fill="currentColor"
   d="m 114.81931,83.883837 h 0.22807 q 0.0727,0 0.12522,-0.05701 0.0537,-0.05702 0.0537,-0.136406 0,-0.0436 -0.0134,-0.07938 -0.0134,-0.03578 -0.038,-0.06093 -0.0246,-0.02516 -0.0593,-0.03914 -0.0347,-0.01397 -0.076,-0.01397 h -0.22919 q -0.008,0 -0.008,0.0067 v 0.373412 q 0,0.0067 0.0168,0.0067 z m 0.77702,0.699874 q 0,0.01231 -0.009,0.0218 -0.009,0.0095 -0.0212,0.0095 h -0.28957 q -0.0179,0 -0.0257,-0.01231 l -0.33204,-0.442722 h -0.11404 v 0.423726 q 0,0.02907 -0.0291,0.02907 h -0.28957 q -0.0291,0 -0.0291,-0.02907 v -1.331549 q 0,-0.01231 0.008,-0.0218 0.008,-0.0095 0.0207,-0.0095 h 0.59031 q 0.0995,0 0.1828,0.03467 0.0833,0.03465 0.15373,0.105087 0.13975,0.137516 0.13975,0.329812 0,0.07267 -0.0207,0.138632 -0.0207,0.06597 -0.0592,0.122425 -0.0386,0.05646 -0.0928,0.100621 -0.0542,0.04416 -0.12131,0.07323 l 0.33206,0.440502 q 0.005,0.0055 0.005,0.01788 z m -0.61714,0.394655 q 0.28285,0 0.52323,-0.138632 0.24149,-0.141982 0.38347,-0.385709 0.14423,-0.245973 0.14423,-0.527704 0,-0.285087 -0.14423,-0.52882 -0.0738,-0.124104 -0.16938,-0.219128 -0.0956,-0.09503 -0.21745,-0.165471 -0.24038,-0.138626 -0.51987,-0.138626 -0.14311,0 -0.27279,0.03578 -0.1297,0.03576 -0.2538,0.106204 -0.24596,0.141982 -0.38572,0.385715 -0.13974,0.245966 -0.13974,0.524347 0,0.283971 0.13974,0.526588 0.14311,0.245959 0.38684,0.384592 0.24597,0.140865 0.52547,0.140865 z m 0,-2.215897 q 0.31975,0 0.5903,0.162115 0.27056,0.160991 0.42037,0.428192 0.15094,0.268326 0.15094,0.573545 0,0.306337 -0.15094,0.574662 -0.15092,0.269435 -0.42261,0.428193 -0.27055,0.160997 -0.58806,0.160997 -0.31417,0 -0.5836,-0.155408 -0.26833,-0.157641 -0.42485,-0.423726 -0.0783,-0.135276 -0.11683,-0.281176 -0.0386,-0.145907 -0.0386,-0.303542 0,-0.314166 0.1554,-0.581367 0.15652,-0.269435 0.42372,-0.424843 0.26833,-0.157642 0.58473,-0.157642 z"
   id="path460"
   style="stroke-width:0.00111801" /></svg>
